<svg width="324" height="16" viewBox="0 0 324 16" fill="none" xmlns="http://www.w3.org/2000/svg">
<circle cx="8" cy="8" r="7.5" transform="rotate(-90 8 8)" fill="#B030B0" stroke="white"/>
<circle cx="36" cy="8" r="7.5" transform="rotate(-90 36 8)" stroke="white"/>
<circle cx="64" cy="8" r="7.5" transform="rotate(-90 64 8)" stroke="white"/>
<circle cx="92" cy="8" r="7.5" transform="rotate(-90 92 8)" stroke="white"/>
<circle cx="120" cy="8" r="7.5" transform="rotate(-90 120 8)" stroke="white"/>
<circle cx="148" cy="8" r="7.5" transform="rotate(-90 148 8)" stroke="white"/>
<circle cx="176" cy="8" r="7.5" transform="rotate(-90 176 8)" stroke="white"/>
<circle cx="204" cy="8" r="7.5" transform="rotate(-90 204 8)" stroke="white"/>
<circle cx="232" cy="8" r="7.5" transform="rotate(-90 232 8)" stroke="white"/>
<circle cx="260" cy="8" r="7.5" transform="rotate(-90 260 8)" stroke="white"/>
<circle cx="288" cy="8" r="7.5" transform="rotate(-90 288 8)" stroke="white"/>
<circle cx="316" cy="8" r="7.5" transform="rotate(-90 316 8)" stroke="white"/>
</svg>
